# xmcd
#
# Track frame offsets: 
#        150
#        39304
#        104526
#        140456
#        145942
#
# Disc length: 2553 seconds
#
# Revision: 2
# Processed by: cddbd v1.5.2PL0 Copyright (c) Steve Scherf et al.
# Submitted via: ExactAudioCopy v0.99pb5
#
DISCID=4209f705
DTITLE=Carlos Johnson and Joint Venture - Live in Poland
DYEAR=2008
DGENRE=Blues
TTITLE0=Every Day I've Got The Blues
TTITLE1=Don't Ever Leave Me
TTITLE2=Hey Baby
TTITLE3=Got My Mojo Working
TTITLE4=I Wanna Thank You
EXTD=
EXTT0=
EXTT1=
EXTT2=
EXTT3=
EXTT4=
PLAYORDER=
